<mxfile host="app.diagrams.net" modified="2023-06-25T14:23:12.648Z" agent="Mozilla/5.0 (Windows NT 10.0; Win64; x64) AppleWebKit/537.36 (KHTML, like Gecko) Chrome/113.0.0.0 Safari/537.36 OPR/99.0.0.0" version="21.5.0" etag="JFDAGS2GkPzSiAALy8B_" type="github">
  <diagram name="Page-1" id="LyOrZwghrGku2pZw7F2u">
    <mxGraphModel>
      <root>
        <mxCell id="0" />
        <mxCell id="1" parent="0" />
      </root>
    </mxGraphModel>
  </diagram>
</mxfile>
